<svg width="148" height="46" viewBox="0 0 179 47" fill="none" xmlns="http://www.w3.org/2000/svg"><path d="M59.2156 17.5c-2.8228 0-4.6922 1.4773-4.6922 3.767 0 1.8466 1.103 3.0469 3.4771 3.4901l2.2246.4247c1.4955.2585 2.0003.9418 2.0003 1.6989 0 1.1633-1.0282 1.8466-2.692 1.8466-2.0189 0-3.2901-.9418-3.5331-2.5299H54c.243 2.6961 2.3181 4.3026 5.4213 4.3026 2.9162 0 4.8604-1.5142 4.8604-3.8594 0-1.9389-1.3646-2.9361-3.7388-3.3977l-1.7759-.3509c-1.3647-.2585-2.1124-.7755-2.1124-1.7727 0-1.2187 1.0655-1.902 2.6919-1.902 1.8507 0 2.7667.8125 2.991 2.1421h1.9816C64.02 18.4602 61.5524 17.5 59.2156 17.5ZM75.9867 19.5497v-1.8281H66.864v12.5568h9.1227v-1.8466h-7.1038v-3.4531h6.356v-1.8281h-6.356v-3.6009h7.1038ZM82.9117 17.5c-2.8228 0-4.6922 1.4773-4.6922 3.767 0 1.8466 1.1029 3.0469 3.4771 3.4901l2.2246.4247c1.4956.2585 2.0002.9418 2.0002 1.6989 0 1.1633-1.0282 1.8466-2.6919 1.8466-2.019 0-3.2901-.9418-3.5331-2.5299H77.696c.2431 2.6961 2.3181 4.3026 5.4213 4.3026 2.9163 0 4.8605-1.5142 4.8605-3.8594 0-1.9389-1.3647-2.9361-3.7389-3.3977l-1.7759-.3509c-1.3646-.2585-2.1124-.7755-2.1124-1.7727 0-1.2187 1.0655-1.902 2.6919-1.902 1.8507 0 2.7667.8125 2.9911 2.1421h1.9815C87.716 18.4602 85.2484 17.5 82.9117 17.5ZM94.9241 17.5c-2.8228 0-4.6922 1.4773-4.6922 3.767 0 1.8466 1.103 3.0469 3.4771 3.4901l2.2246.4247c1.4955.2585 2.0003.9418 2.0003 1.6989 0 1.1633-1.0282 1.8466-2.692 1.8466-2.0189 0-3.2901-.9418-3.5331-2.5299h-2.0003c.243 2.6961 2.3181 4.3026 5.4213 4.3026 2.9162 0 4.8604-1.5142 4.8604-3.8594 0-1.9389-1.3646-2.9361-3.7388-3.3977l-1.7759-.3509c-1.3647-.2585-2.1124-.7755-2.1124-1.7727 0-1.2187 1.0655-1.902 2.6919-1.902 1.8507 0 2.7667.8125 2.991 2.1421h1.982c-.2995-2.8992-2.7671-3.8594-5.1039-3.8594ZM102.572 17.7216v12.5568h2.019V17.7216h-2.019ZM113.818 17.5c-3.665 0-6.618 2.8807-6.618 6.5s2.953 6.5 6.618 6.5c3.664 0 6.617-2.8807 6.617-6.5s-2.953-6.5-6.617-6.5Zm0 11.1349c-2.599 0-4.581-2.0681-4.581-4.6349s1.982-4.6534 4.581-4.6534c2.598 0 4.58 2.0866 4.58 4.6534 0 2.5668-1.982 4.6349-4.58 4.6349ZM132.16 17.7216v9.0483l-7.571-9.0483h-1.552v12.5568h2.019v-8.8636l7.497 8.8636h1.607V17.7216h-2ZM141.897 17.5c-2.823 0-4.693 1.4773-4.693 3.767 0 1.8466 1.103 3.0469 3.477 3.4901l2.225.4247c1.496.2585 2 .9418 2 1.6989 0 1.1633-1.028 1.8466-2.692 1.8466-2.019 0-3.29-.9418-3.533-2.5299h-2c.243 2.6961 2.318 4.3026 5.421 4.3026 2.916 0 4.861-1.5142 4.861-3.8594 0-1.9389-1.365-2.9361-3.739-3.3977l-1.776-.3509c-1.365-.2585-2.113-.7755-2.113-1.7727 0-1.2187 1.066-1.902 2.692-1.902 1.851 0 2.767.8125 2.991 2.1421H147c-.299-2.8992-2.767-3.8594-5.103-3.8594Z" fill="#fff"></path><path d="M173.005 5h-21c-2.209 0-4 1.79086-4 4v6c0 2.2091 1.791 4 4 4h21c2.209 0 4-1.7909 4-4V9c0-2.20914-1.791-4-4-4Z" fill="#1D88F4"></path><path d="M152.579 15h2.355c1.333 0 1.986-.679 1.986-1.5852 0-.8807-.625-1.3978-1.244-1.429v-.0568c.568-.1335 1.017-.5313 1.017-1.2387 0-.86644-.625-1.50848-1.886-1.50848h-2.228V15Zm1.054-.8807v-1.7045h1.162c.651 0 1.054.3977 1.054.9176 0 .4631-.318.7869-1.082.7869h-1.134Zm0-2.4631v-1.6051h1.066c.619 0 .94.3267.94.7756 0 .5114-.415.8295-.963.8295h-1.043ZM157.837 15h3.807v-.8835h-2.753v-1.5881h2.534v-.8835h-2.534v-1.5796h2.73v-.88348h-3.784V15Zm4.604-4.9347h1.798V15h1.045v-4.9347h1.799v-.88348h-4.642v.88348ZM168.022 15l.48-1.4347h2.187L171.172 15h1.125l-2.051-5.81818h-1.301L166.897 15h1.125Zm.764-2.2812.787-2.3438h.045l.787 2.3438h-1.619Z" fill="#fff"></path><circle cx="24.5" cy="24.5" r="17.5" fill="#fff"></circle><circle cx="24.3122" cy="24.2479" r="14.8202" stroke="url(#a)" stroke-width="8.36012"></circle><g filter="url(#b)"><path d="M13.5866 40.3614c-.1641.7083-1.0533.9643-1.5784.4545l-3.55161-3.4487c-.5356-.5201-.26644-1.4187.46998-1.569l4.56643-.9323c.6711-.137 1.2609.4561 1.1084 1.1145l-1.0148 4.381Z" fill="#FC427F"></path></g><g filter="url(#c)"><path d="M25.3301 5.76817c.2127-1.40611-.757-2.73617-2.1788-2.7643a19.76029 19.76029 0 0 0-6.5375.97637A19.7603 19.7603 0 0 0 4.01375 16.5124a19.76007 19.76007 0 0 0-1.01171 6.5321c.02045 1.4219 1.34524 2.3988 2.75249 2.1937 1.40724-.205 2.35777-1.5174 2.40263-2.9388a14.61048 14.61048 0 0 1 4.29994-9.8981 14.61003 14.61003 0 0 1 5.7586-3.52663 14.61072 14.61072 0 0 1 4.1627-.71979c1.4216-.03717 2.739-.98059 2.9517-2.38671Z" fill="#1E89F5"></path></g><g filter="url(#d)"><path d="M28.5347 42.3213c.2577 1.3984 1.6081 2.3394 2.9612 1.9022a19.7596 19.7596 0 0 0 7.9055-4.8383 19.76001 19.76001 0 0 0 4.8297-7.9106c.4357-1.3537-.5067-2.7031-1.9054-2.9592-1.3988-.2561-2.7193.683-3.2166 2.0152a14.61029 14.61029 0 0 1-3.351 5.2153 14.61043 14.61043 0 0 1-5.2117 3.3566c-1.3317.4988-2.2693 1.8203-2.0117 3.2188Z" fill="#FBBF24"></path></g><defs><filter id="b" x="5.89526" y="29.526" width="14.0506" height="13.8374" filterUnits="userSpaceOnUse" color-interpolation-filters="sRGB"><feFlood flood-opacity="0" result="BackgroundImageFix"></feFlood><feColorMatrix in="SourceAlpha" type="matrix" values="0 0 0 0 0 0 0 0 0 0 0 0 0 0 0 0 0 0 127 0" result="hardAlpha"></feColorMatrix><feOffset dx="1.52002" dy="-1.52002"></feOffset><feGaussianBlur stdDeviation="1.90003"></feGaussianBlur><feColorMatrix type="matrix" values="0 0 0 0 0.984314 0 0 0 0 0.207843 0 0 0 0 0.313726 0 0 0 0.35 0"></feColorMatrix><feBlend mode="normal" in2="BackgroundImageFix" result="effect1_dropShadow_787:878"></feBlend><feBlend mode="normal" in="SourceGraphic" in2="effect1_dropShadow_787:878" result="shape"></feBlend><feColorMatrix in="SourceAlpha" type="matrix" values="0 0 0 0 0 0 0 0 0 0 0 0 0 0 0 0 0 0 127 0" result="hardAlpha"></feColorMatrix><feOffset dx="0.76833" dy="1.1525"></feOffset><feGaussianBlur stdDeviation="0.57625"></feGaussianBlur><feComposite in2="hardAlpha" operator="arithmetic" k2="-1" k3="1"></feComposite><feColorMatrix type="matrix" values="0 0 0 0 1 0 0 0 0 1 0 0 0 0 1 0 0 0 0.2 0"></feColorMatrix><feBlend mode="normal" in2="shape" result="effect2_innerShadow_787:878"></feBlend></filter><filter id="c" x="0.71237" y="0.71237" width="28.4547" height="28.3607" filterUnits="userSpaceOnUse" color-interpolation-filters="sRGB"><feFlood flood-opacity="0" result="BackgroundImageFix"></feFlood><feColorMatrix in="SourceAlpha" type="matrix" values="0 0 0 0 0 0 0 0 0 0 0 0 0 0 0 0 0 0 127 0" result="hardAlpha"></feColorMatrix><feOffset dx="0.76001" dy="0.76001"></feOffset><feGaussianBlur stdDeviation="1.52382"></feGaussianBlur><feColorMatrix type="matrix" values="0 0 0 0 0.113725 0 0 0 0 0.533333 0 0 0 0 0.956863 0 0 0 0.25 0"></feColorMatrix><feBlend mode="normal" in2="BackgroundImageFix" result="effect1_dropShadow_787:878"></feBlend><feBlend mode="normal" in="SourceGraphic" in2="effect1_dropShadow_787:878" result="shape"></feBlend><feColorMatrix in="SourceAlpha" type="matrix" values="0 0 0 0 0 0 0 0 0 0 0 0 0 0 0 0 0 0 127 0" result="hardAlpha"></feColorMatrix><feOffset dx="0.76833" dy="0.76833"></feOffset><feGaussianBlur stdDeviation="1.075"></feGaussianBlur><feComposite in2="hardAlpha" operator="arithmetic" k2="-1" k3="1"></feComposite><feColorMatrix type="matrix" values="0 0 0 0 1 0 0 0 0 1 0 0 0 0 1 0 0 0 0.2 0"></feColorMatrix><feBlend mode="normal" in2="shape" result="effect2_innerShadow_787:878"></feBlend></filter><filter id="d" x="23.172" y="23.9132" width="21.9347" height="21.9384" filterUnits="userSpaceOnUse" color-interpolation-filters="sRGB"><feFlood flood-opacity="0" result="BackgroundImageFix"></feFlood><feColorMatrix in="SourceAlpha" type="matrix" values="0 0 0 0 0 0 0 0 0 0 0 0 0 0 0 0 0 0 127 0" result="hardAlpha"></feColorMatrix><feOffset dx="-2.28003" dy="-1.52002"></feOffset><feGaussianBlur stdDeviation="1.52002"></feGaussianBlur><feColorMatrix type="matrix" values="0 0 0 0 0.984314 0 0 0 0 0.756863 0 0 0 0 0.164706 0 0 0 0.1 0"></feColorMatrix><feBlend mode="normal" in2="BackgroundImageFix" result="effect1_dropShadow_787:878"></feBlend><feBlend mode="normal" in="SourceGraphic" in2="effect1_dropShadow_787:878" result="shape"></feBlend><feColorMatrix in="SourceAlpha" type="matrix" values="0 0 0 0 0 0 0 0 0 0 0 0 0 0 0 0 0 0 127 0" result="hardAlpha"></feColorMatrix><feOffset dx="0.76833" dy="0.76833"></feOffset><feGaussianBlur stdDeviation="0.57625"></feGaussianBlur><feComposite in2="hardAlpha" operator="arithmetic" k2="-1" k3="1"></feComposite><feColorMatrix type="matrix" values="0 0 0 0 1 0 0 0 0 1 0 0 0 0 1 0 0 0 0.4 0"></feColorMatrix><feBlend mode="normal" in2="shape" result="effect2_innerShadow_787:878"></feBlend></filter><linearGradient id="a" x1="5.31189" y1="10.0909" x2="46.0611" y2="17.1799" gradientUnits="userSpaceOnUse"><stop stop-color="#383E4B"></stop><stop offset="1" stop-color="#242A37"></stop></linearGradient></defs></svg>
